<?xml version="1.0" standalone="no"?>
<!DOCTYPE svg PUBLIC "-//W3C//DTD SVG 20010904//EN"
 "http://www.w3.org/TR/2001/REC-SVG-20010904/DTD/svg10.dtd">
<svg version="1.0" xmlns="http://www.w3.org/2000/svg"
 width="81.000000pt" height="50.000000pt" viewBox="0 0 81.000000 50.000000"
 preserveAspectRatio="xMidYMid meet">
<metadata>
Created by potrace 1.10, written by Peter Selinger 2001-2011
</metadata>
<g transform="translate(0.000000,50.000000) scale(0.100000,-0.100000)"
fill="#000000" stroke="none">
<path d="M230 469 c-32 -13 -68 -47 -86 -81 -19 -37 -18 -94 2 -102 23 -9 24
-8 24 20 0 15 12 38 30 56 28 27 36 30 75 25 25 -2 43 -1 40 3 -8 14 -65 20
-91 9 -38 -14 -42 -3 -5 15 41 22 99 20 139 -4 33 -20 72 -27 72 -12 0 15 -44
51 -82 67 -42 17 -81 18 -118 4z"/>
<path d="M460 388 c0 -38 0 -38 40 -38 40 0 40 0 40 38 0 37 0 37 -40 37 -40
0 -40 0 -40 -37z"/>
<path d="M390 340 c0 -27 3 -30 30 -30 27 0 30 3 30 30 0 27 -3 30 -30 30 -27
0 -30 -3 -30 -30z"/>
<path d="M65 322 c-16 -11 -35 -25 -41 -33 -40 -50 -7 -174 42 -155 14 5 13 9
-5 32 -12 15 -21 38 -21 51 0 24 40 73 60 73 5 0 10 11 10 25 0 30 -6 31 -45
7z"/>
<path d="M547 320 c-4 -16 0 -20 19 -20 17 0 24 6 24 20 0 13 -7 20 -19 20
-10 0 -21 -9 -24 -20z"/>
<path d="M630 320 c0 -15 7 -20 25 -20 18 0 25 5 25 20 0 15 -7 20 -25 20 -18
0 -25 -5 -25 -20z"/>
<path d="M686 253 c1 -35 2 -36 39 -37 37 -1 38 0 39 37 1 37 1 37 -39 37 -40
0 -40 0 -39 -37z"/>
<path d="M483 245 c-7 -20 5 -35 28 -35 15 0 20 6 17 22 -3 24 -36 34 -45 13z"/>
<path d="M572 238 c2 -15 10 -23 23 -23 13 0 21 8 23 23 3 18 -1 22 -23 22
-22 0 -26 -4 -23 -22z"/>
<path d="M60 210 c1 -25 26 -68 35 -59 2 3 -4 23 -15 44 -17 34 -20 36 -20 15z"/>
<path d="M620 190 c0 -15 7 -20 25 -20 18 0 25 5 25 20 0 15 -7 20 -25 20 -18
0 -25 -5 -25 -20z"/>
<path d="M155 167 c-34 -13 -105 -56 -105 -63 0 -3 15 3 33 13 24 13 55 18
125 18 87 0 93 1 90 20 -3 17 -11 20 -58 22 -30 1 -69 -3 -85 -10z"/>
<path d="M744 149 c-36 -41 -99 -61 -177 -57 -50 2 -72 -1 -75 -10 -5 -16 121
-17 169 0 43 14 86 44 99 69 14 25 8 24 -16 -2z"/>
<path d="M332 140 c2 -18 15 -28 53 -41 65 -23 75 -23 75 -1 0 12 -16 23 -52
36 -29 10 -59 21 -66 24 -10 3 -13 -2 -10 -18z"/>
<path d="M620 133 c-22 -10 -50 -13 -78 -9 -48 6 -50 -8 -2 -17 37 -8 79 0
104 19 28 20 16 23 -24 7z"/>
<path d="M98 104 c-27 -8 -48 -19 -48 -23 0 -5 21 -2 48 6 32 10 72 13 125 10
42 -3 77 -2 77 3 0 23 -131 26 -202 4z"/>
<path d="M330 92 c0 -9 71 -34 78 -27 4 3 -63 35 -74 35 -2 0 -4 -4 -4 -8z"/>
</g>
</svg>
